STARTFONT 2.1
FONT -Linotype-New Century Schoolbook-Bold-R-Normal--10-100-72-72-P-60-ISO8859-1
SIZE 10 72 72
FONTBOUNDINGBOX 15 14 -3 -3

STARTPROPERTIES 22
FONTNAME_REGISTRY "-"
FOUNDRY "Linotype"
FAMILY_NAME "New Century Schoolbook"
WEIGHT_NAME "Bold"
SLANT "R"
SETWIDTH_NAME "Normal"
ADD_STYLE_NAME ""
PIXEL_SIZE 10
POINT_SIZE 100
RESOLUTION_X 72
RESOLUTION_Y 72
SPACING "P"
CHARSET_REGISTRY "ISO8859"
CHARSET_ENCODING "1"
FULL_NAME "NewCenturySchlbk-Bold"
AVERAGE_WIDTH 60
WEIGHT 10
X_HEIGHT 5
QUAD_WIDTH 6
DEFAULT_CHAR 32
FONT_DESCENT 2
FONT_ASCENT 10
ENDPROPERTIES

CHARS 190

STARTCHAR space
ENCODING 32
SWIDTH 287 0
DWIDTH 3 0
BBX 1 1 0 0
BITMAP
00
ENDCHAR

STARTCHAR exclam
ENCODING 33
SWIDTH 296 0
DWIDTH 3 0
BBX 2 8 1 0
BITMAP
C0
C0
C0
40
40
40
C0
C0
ENDCHAR

STARTCHAR quotedbl
ENCODING 34
SWIDTH 333 0
DWIDTH 3 0
BBX 4 3 0 5
BITMAP
F0
F0
50
ENDCHAR

STARTCHAR numbersign
ENCODING 35
SWIDTH 574 0
DWIDTH 6 0
BBX 5 8 0 0
BITMAP
50
50
50
F8
50
F8
50
50
ENDCHAR

STARTCHAR dollar
ENCODING 36
SWIDTH 574 0
DWIDTH 6 0
BBX 6 10 0 -1
BITMAP
20
7C
EC
E0
70
38
AC
EC
F8
20
ENDCHAR

STARTCHAR percent
ENCODING 37
SWIDTH 833 0
DWIDTH 8 0
BBX 10 8 0 0
BITMAP
3880
6700
C500
CB80
7640
0E40
0A40
1180
ENDCHAR

STARTCHAR ampersand
ENCODING 38
SWIDTH 852 0
DWIDTH 9 0
BBX 8 8 0 0
BITMAP
38
6C
6C
7F
FE
DD
FF
76
ENDCHAR

STARTCHAR quoteright
ENCODING 39
SWIDTH 241 0
DWIDTH 2 0
BBX 2 4 0 4
BITMAP
C0
C0
C0
80
ENDCHAR

STARTCHAR parenleft
ENCODING 40
SWIDTH 389 0
DWIDTH 4 0
BBX 3 9 1 -1
BITMAP
20
40
C0
C0
C0
C0
C0
40
20
ENDCHAR

STARTCHAR parenright
ENCODING 41
SWIDTH 389 0
DWIDTH 4 0
BBX 3 9 0 -1
BITMAP
80
40
60
60
60
60
60
40
80
ENDCHAR

STARTCHAR asterisk
ENCODING 42
SWIDTH 500 0
DWIDTH 5 0
BBX 4 4 1 3
BITMAP
60
70
E0
60
ENDCHAR

STARTCHAR plus
ENCODING 43
SWIDTH 606 0
DWIDTH 6 0
BBX 5 5 1 0
BITMAP
20
20
F8
20
20
ENDCHAR

STARTCHAR comma
ENCODING 44
SWIDTH 278 0
DWIDTH 3 0
BBX 2 4 0 -2
BITMAP
C0
C0
C0
80
ENDCHAR

STARTCHAR minus
ENCODING 45
SWIDTH 606 0
DWIDTH 6 0
BBX 5 1 1 2
BITMAP
F8
ENDCHAR

STARTCHAR period
ENCODING 46
SWIDTH 278 0
DWIDTH 3 0
BBX 2 2 0 0
BITMAP
C0
C0
ENDCHAR

STARTCHAR slash
ENCODING 47
SWIDTH 278 0
DWIDTH 3 0
BBX 4 8 0 0
BITMAP
30
20
60
40
40
C0
C0
80
ENDCHAR

STARTCHAR zero
ENCODING 48
SWIDTH 574 0
DWIDTH 6 0
BBX 5 8 0 0
BITMAP
70
D8
D8
D8
D8
D8
D8
70
ENDCHAR

STARTCHAR one
ENCODING 49
SWIDTH 574 0
DWIDTH 6 0
BBX 5 8 0 0
BITMAP
10
70
30
30
30
30
30
78
ENDCHAR

STARTCHAR two
ENCODING 50
SWIDTH 574 0
DWIDTH 6 0
BBX 5 8 0 0
BITMAP
70
D8
D8
D8
30
68
F8
F8
ENDCHAR

STARTCHAR three
ENCODING 51
SWIDTH 574 0
DWIDTH 6 0
BBX 5 8 0 0
BITMAP
70
D8
18
78
18
D8
D8
70
ENDCHAR

STARTCHAR four
ENCODING 52
SWIDTH 574 0
DWIDTH 6 0
BBX 6 8 0 0
BITMAP
18
18
38
58
D8
FC
18
3C
ENDCHAR

STARTCHAR five
ENCODING 53
SWIDTH 574 0
DWIDTH 6 0
BBX 5 8 0 0
BITMAP
F8
F0
80
F0
18
D8
98
70
ENDCHAR

STARTCHAR six
ENCODING 54
SWIDTH 574 0
DWIDTH 6 0
BBX 5 8 0 0
BITMAP
38
58
C0
F0
D8
D8
D8
70
ENDCHAR

STARTCHAR seven
ENCODING 55
SWIDTH 574 0
DWIDTH 6 0
BBX 5 8 0 0
BITMAP
F8
F8
90
30
20
60
60
60
ENDCHAR

STARTCHAR eight
ENCODING 56
SWIDTH 574 0
DWIDTH 6 0
BBX 6 8 0 0
BITMAP
78
CC
CC
F8
4C
CC
CC
78
ENDCHAR

STARTCHAR nine
ENCODING 57
SWIDTH 574 0
DWIDTH 6 0
BBX 5 8 0 0
BITMAP
70
D8
D8
D8
78
18
D0
E0
ENDCHAR

STARTCHAR colon
ENCODING 58
SWIDTH 278 0
DWIDTH 3 0
BBX 2 5 1 0
BITMAP
C0
C0
00
C0
C0
ENDCHAR

STARTCHAR semicolon
ENCODING 59
SWIDTH 278 0
DWIDTH 3 0
BBX 2 7 0 -2
BITMAP
C0
C0
00
C0
C0
C0
80
ENDCHAR

STARTCHAR less
ENCODING 60
SWIDTH 606 0
DWIDTH 6 0
BBX 5 5 1 0
BITMAP
08
30
C0
30
08
ENDCHAR

STARTCHAR equal
ENCODING 61
SWIDTH 606 0
DWIDTH 6 0
BBX 5 4 1 1
BITMAP
F8
00
00
F8
ENDCHAR

STARTCHAR greater
ENCODING 62
SWIDTH 606 0
DWIDTH 6 0
BBX 6 5 0 0
BITMAP
C0
30
0C
30
C0
ENDCHAR

STARTCHAR question
ENCODING 63
SWIDTH 500 0
DWIDTH 5 0
BBX 5 8 0 0
BITMAP
70
D8
D8
30
60
00
60
60
ENDCHAR

STARTCHAR at
ENCODING 64
SWIDTH 747 0
DWIDTH 7 0
BBX 7 8 0 0
BITMAP
38
44
9E
A6
A6
BA
40
3C
ENDCHAR

STARTCHAR A
ENCODING 65
SWIDTH 759 0
DWIDTH 8 0
BBX 8 8 0 0
BITMAP
18
18
38
2C
2C
7E
46
EF
ENDCHAR

STARTCHAR B
ENCODING 66
SWIDTH 778 0
DWIDTH 8 0
BBX 7 8 0 0
BITMAP
FC
66
66
7C
66
66
66
FC
ENDCHAR

STARTCHAR C
ENCODING 67
SWIDTH 778 0
DWIDTH 8 0
BBX 7 8 0 0
BITMAP
3E
62
C2
C0
C0
C2
66
3C
ENDCHAR

STARTCHAR D
ENCODING 68
SWIDTH 833 0
DWIDTH 8 0
BBX 8 8 0 0
BITMAP
FC
66
63
63
63
63
66
FC
ENDCHAR

STARTCHAR E
ENCODING 69
SWIDTH 759 0
DWIDTH 8 0
BBX 7 8 0 0
BITMAP
FE
62
6A
78
6A
62
62
FE
ENDCHAR

STARTCHAR F
ENCODING 70
SWIDTH 722 0
DWIDTH 7 0
BBX 7 8 0 0
BITMAP
FE
62
6A
78
68
60
60
F0
ENDCHAR

STARTCHAR G
ENCODING 71
SWIDTH 833 0
DWIDTH 8 0
BBX 8 8 0 0
BITMAP
3E
62
C2
C0
CF
C6
66
3A
ENDCHAR

STARTCHAR H
ENCODING 72
SWIDTH 870 0
DWIDTH 9 0
BBX 8 8 0 0
BITMAP
FF
66
66
7E
66
66
66
FF
ENDCHAR

STARTCHAR I
ENCODING 73
SWIDTH 444 0
DWIDTH 4 0
BBX 4 8 0 0
BITMAP
F0
60
60
60
60
60
60
F0
ENDCHAR

STARTCHAR J
ENCODING 74
SWIDTH 648 0
DWIDTH 6 0
BBX 6 8 0 0
BITMAP
3C
18
18
18
D8
D8
D8
70
ENDCHAR

STARTCHAR K
ENCODING 75
SWIDTH 815 0
DWIDTH 8 0
BBX 7 8 1 0
BITMAP
EE
64
68
78
6C
6C
6C
EE
ENDCHAR

STARTCHAR L
ENCODING 76
SWIDTH 722 0
DWIDTH 7 0
BBX 7 8 0 0
BITMAP
F0
60
60
60
60
62
62
FE
ENDCHAR

STARTCHAR M
ENCODING 77
SWIDTH 981 0
DWIDTH 10 0
BBX 10 8 0 0
BITMAP
F3C0
7380
7380
5D80
5D80
5D80
4980
EBC0
ENDCHAR

STARTCHAR N
ENCODING 78
SWIDTH 833 0
DWIDTH 8 0
BBX 8 8 0 0
BITMAP
E7
62
72
7A
5E
4E
46
E2
ENDCHAR

STARTCHAR O
ENCODING 79
SWIDTH 833 0
DWIDTH 8 0
BBX 8 8 0 0
BITMAP
3C
66
C3
C3
C3
C3
66
3C
ENDCHAR

STARTCHAR P
ENCODING 80
SWIDTH 759 0
DWIDTH 8 0
BBX 7 8 0 0
BITMAP
FC
66
66
66
7C
60
60
F0
ENDCHAR

STARTCHAR Q
ENCODING 81
SWIDTH 833 0
DWIDTH 8 0
BBX 8 10 0 -2
BITMAP
3C
66
C3
C3
C3
DA
64
3C
04
03
ENDCHAR

STARTCHAR R
ENCODING 82
SWIDTH 815 0
DWIDTH 8 0
BBX 8 8 0 0
BITMAP
FC
66
66
7C
6C
6C
6F
E6
ENDCHAR

STARTCHAR S
ENCODING 83
SWIDTH 667 0
DWIDTH 7 0
BBX 7 8 0 0
BITMAP
7A
C6
C2
70
3C
8E
C6
BC
ENDCHAR

STARTCHAR T
ENCODING 84
SWIDTH 722 0
DWIDTH 7 0
BBX 8 8 0 0
BITMAP
FF
DB
99
18
18
18
18
3C
ENDCHAR

STARTCHAR U
ENCODING 85
SWIDTH 833 0
DWIDTH 8 0
BBX 8 8 0 0
BITMAP
F7
62
62
62
62
62
62
3C
ENDCHAR

STARTCHAR V
ENCODING 86
SWIDTH 759 0
DWIDTH 8 0
BBX 8 8 0 0
BITMAP
F7
62
62
22
34
34
1C
18
ENDCHAR

STARTCHAR W
ENCODING 87
SWIDTH 981 0
DWIDTH 10 0
BBX 10 8 0 0
BITMAP
EDC0
6D00
6D00
6F00
3F00
3F00
3300
3300
ENDCHAR

STARTCHAR X
ENCODING 88
SWIDTH 722 0
DWIDTH 7 0
BBX 7 8 0 0
BITMAP
EE
C4
68
30
10
38
4C
EE
ENDCHAR

STARTCHAR Y
ENCODING 89
SWIDTH 722 0
DWIDTH 8 0
BBX 8 8 0 0
BITMAP
F7
62
34
18
18
18
18
3C
ENDCHAR

STARTCHAR Z
ENCODING 90
SWIDTH 667 0
DWIDTH 7 0
BBX 6 8 0 0
BITMAP
FC
98
98
30
70
64
C4
FC
ENDCHAR

STARTCHAR bracketleft
ENCODING 91
SWIDTH 389 0
DWIDTH 4 0
BBX 3 9 1 -1
BITMAP
E0
C0
C0
C0
C0
C0
C0
C0
E0
ENDCHAR

STARTCHAR backslash
ENCODING 92
SWIDTH 606 0
DWIDTH 6 0
BBX 5 8 1 0
BITMAP
C0
C0
60
60
30
30
18
18
ENDCHAR

STARTCHAR bracketright
ENCODING 93
SWIDTH 389 0
DWIDTH 4 0
BBX 3 9 0 -1
BITMAP
E0
60
60
60
60
60
60
60
E0
ENDCHAR

STARTCHAR asciicircum
ENCODING 94
SWIDTH 606 0
DWIDTH 6 0
BBX 6 5 2 3
BITMAP
30
30
78
48
CC
ENDCHAR

STARTCHAR underscore
ENCODING 95
SWIDTH 500 0
DWIDTH 5 0
BBX 5 2 0 -1
BITMAP
F8
F8
ENDCHAR

STARTCHAR quoteleft
ENCODING 96
SWIDTH 241 0
DWIDTH 2 0
BBX 2 4 0 4
BITMAP
40
C0
C0
C0
ENDCHAR

STARTCHAR a
ENCODING 97
SWIDTH 611 0
DWIDTH 6 0
BBX 6 5 0 0
BITMAP
F8
D8
78
D8
EC
ENDCHAR

STARTCHAR b
ENCODING 98
SWIDTH 648 0
DWIDTH 6 0
BBX 7 8 0 0
BITMAP
E0
60
60
7C
66
66
66
5C
ENDCHAR

STARTCHAR c
ENCODING 99
SWIDTH 556 0
DWIDTH 6 0
BBX 5 5 0 0
BITMAP
78
D8
C0
C8
70
ENDCHAR

STARTCHAR d
ENCODING 100
SWIDTH 667 0
DWIDTH 7 0
BBX 7 8 0 0
BITMAP
1C
0C
0C
7C
CC
CC
CC
7E
ENDCHAR

STARTCHAR e
ENCODING 101
SWIDTH 574 0
DWIDTH 6 0
BBX 5 5 0 0
BITMAP
70
D8
F8
C0
78
ENDCHAR

STARTCHAR f
ENCODING 102
SWIDTH 389 0
DWIDTH 4 0
BBX 5 8 0 0
BITMAP
38
78
60
F0
60
60
60
F0
ENDCHAR

STARTCHAR g
ENCODING 103
SWIDTH 611 0
DWIDTH 6 0
BBX 6 8 0 -2
BITMAP
0C
F8
D8
F8
C0
F8
D8
F0
ENDCHAR

STARTCHAR h
ENCODING 104
SWIDTH 685 0
DWIDTH 7 0
BBX 7 8 0 0
BITMAP
E0
60
60
7C
6C
6C
6C
EE
ENDCHAR

STARTCHAR i
ENCODING 105
SWIDTH 370 0
DWIDTH 4 0
BBX 4 8 0 0
BITMAP
60
60
00
E0
60
60
60
F0
ENDCHAR

STARTCHAR j
ENCODING 106
SWIDTH 352 0
DWIDTH 4 0
BBX 4 10 0 -2
BITMAP
30
30
00
70
30
30
30
30
F0
E0
ENDCHAR

STARTCHAR k
ENCODING 107
SWIDTH 667 0
DWIDTH 7 0
BBX 7 8 0 0
BITMAP
E0
60
60
66
6C
78
6C
EE
ENDCHAR

STARTCHAR l
ENCODING 108
SWIDTH 352 0
DWIDTH 4 0
BBX 4 8 0 0
BITMAP
E0
60
60
60
60
60
60
F0
ENDCHAR

STARTCHAR m
ENCODING 109
SWIDTH 963 0
DWIDTH 10 0
BBX 10 5 0 0
BITMAP
FF80
6D80
6D80
6D80
EDC0
ENDCHAR

STARTCHAR n
ENCODING 110
SWIDTH 685 0
DWIDTH 7 0
BBX 7 5 0 0
BITMAP
FC
6C
6C
6C
EE
ENDCHAR

STARTCHAR o
ENCODING 111
SWIDTH 611 0
DWIDTH 6 0
BBX 6 5 0 0
BITMAP
78
CC
CC
CC
78
ENDCHAR

STARTCHAR p
ENCODING 112
SWIDTH 667 0
DWIDTH 7 0
BBX 7 7 0 -2
BITMAP
FC
66
66
66
7C
60
F0
ENDCHAR

STARTCHAR q
ENCODING 113
SWIDTH 648 0
DWIDTH 6 0
BBX 7 7 0 -2
BITMAP
74
CC
CC
CC
7C
0C
1E
ENDCHAR

STARTCHAR r
ENCODING 114
SWIDTH 519 0
DWIDTH 5 0
BBX 6 5 0 0
BITMAP
FC
6C
60
60
F0
ENDCHAR

STARTCHAR s
ENCODING 115
SWIDTH 500 0
DWIDTH 5 0
BBX 5 5 0 0
BITMAP
78
C0
F8
18
F0
ENDCHAR

STARTCHAR t
ENCODING 116
SWIDTH 426 0
DWIDTH 4 0
BBX 5 7 0 0
BITMAP
20
60
F8
60
68
78
70
ENDCHAR

STARTCHAR u
ENCODING 117
SWIDTH 685 0
DWIDTH 7 0
BBX 7 5 0 0
BITMAP
EC
6C
6C
7C
76
ENDCHAR

STARTCHAR v
ENCODING 118
SWIDTH 611 0
DWIDTH 6 0
BBX 6 5 0 0
BITMAP
EC
68
68
30
30
ENDCHAR

STARTCHAR w
ENCODING 119
SWIDTH 889 0
DWIDTH 9 0
BBX 9 5 0 0
BITMAP
ED80
ED00
6D00
7F00
3600
ENDCHAR

STARTCHAR x
ENCODING 120
SWIDTH 611 0
DWIDTH 6 0
BBX 6 5 0 0
BITMAP
FC
68
30
58
DC
ENDCHAR

STARTCHAR y
ENCODING 121
SWIDTH 611 0
DWIDTH 6 0
BBX 6 7 0 -2
BITMAP
EC
68
68
30
30
20
C0
ENDCHAR

STARTCHAR z
ENCODING 122
SWIDTH 537 0
DWIDTH 5 0
BBX 4 5 1 0
BITMAP
F0
B0
60
D0
F0
ENDCHAR

STARTCHAR braceleft
ENCODING 123
SWIDTH 389 0
DWIDTH 4 0
BBX 4 9 0 -1
BITMAP
70
60
60
60
C0
60
60
60
70
ENDCHAR

STARTCHAR bar
ENCODING 124
SWIDTH 606 0
DWIDTH 6 0
BBX 2 8 2 0
BITMAP
C0
C0
C0
C0
C0
C0
C0
C0
ENDCHAR

STARTCHAR braceright
ENCODING 125
SWIDTH 389 0
DWIDTH 4 0
BBX 4 9 0 -1
BITMAP
E0
60
60
60
30
60
60
60
E0
ENDCHAR

STARTCHAR asciitilde
ENCODING 126
SWIDTH 606 0
DWIDTH 6 0
BBX 5 3 1 1
BITMAP
68
F8
B0
ENDCHAR

STARTCHAR exclamdown
ENCODING 161
SWIDTH 296 0
DWIDTH 3 0
BBX 2 8 0 -2
BITMAP
C0
C0
00
40
40
40
C0
C0
ENDCHAR

STARTCHAR cent
ENCODING 162
SWIDTH 574 0
DWIDTH 6 0
BBX 5 7 0 -1
BITMAP
08
78
D8
E0
E8
78
80
ENDCHAR

STARTCHAR sterling
ENCODING 163
SWIDTH 574 0
DWIDTH 6 0
BBX 6 8 0 0
BITMAP
38
64
6C
6C
F0
64
FC
D8
ENDCHAR

STARTCHAR currency
ENCODING 164
SWIDTH 574 0
DWIDTH 6 0
BBX 6 6 0 1
BITMAP
B4
78
CC
CC
78
B4
ENDCHAR

STARTCHAR yen
ENCODING 165
SWIDTH 574 0
DWIDTH 7 0
BBX 8 8 0 0
BITMAP
F7
62
34
3C
18
3C
18
3C
ENDCHAR

STARTCHAR brokenbar
ENCODING 166
SWIDTH 606 0
DWIDTH 6 0
BBX 2 8 2 0
BITMAP
C0
C0
C0
00
C0
C0
C0
C0
ENDCHAR

STARTCHAR section
ENCODING 167
SWIDTH 500 0
DWIDTH 5 0
BBX 4 9 1 -1
BITMAP
60
90
80
E0
90
70
10
90
60
ENDCHAR

STARTCHAR dieresis
ENCODING 168
SWIDTH 333 0
DWIDTH 3 0
BBX 4 1 0 7
BITMAP
90
ENDCHAR

STARTCHAR copyright
ENCODING 169
SWIDTH 747 0
DWIDTH 7 0
BBX 8 8 0 0
BITMAP
3C
42
9D
B5
B1
B5
5E
3C
ENDCHAR

STARTCHAR ordfeminine
ENCODING 170
SWIDTH 367 0
DWIDTH 4 0
BBX 5 6 0 2
BITMAP
F0
90
90
F8
00
F0
ENDCHAR

STARTCHAR guillemotleft
ENCODING 171
SWIDTH 500 0
DWIDTH 5 0
BBX 4 3 0 1
BITMAP
50
A0
50
ENDCHAR

STARTCHAR logicalnot
ENCODING 172
SWIDTH 606 0
DWIDTH 6 0
BBX 5 3 1 0
BITMAP
F8
08
08
ENDCHAR

STARTCHAR hyphen
ENCODING 173
SWIDTH 333 0
DWIDTH 3 0
BBX 2 2 1 2
BITMAP
C0
C0
ENDCHAR

STARTCHAR registered
ENCODING 174
SWIDTH 747 0
DWIDTH 7 0
BBX 8 8 0 0
BITMAP
3C
42
BD
AD
B9
AD
42
3C
ENDCHAR

STARTCHAR macron
ENCODING 175
SWIDTH 333 0
DWIDTH 3 0
BBX 3 2 0 6
BITMAP
E0
E0
ENDCHAR

STARTCHAR degree
ENCODING 176
SWIDTH 400 0
DWIDTH 6 0
BBX 3 4 2 4
BITMAP
40
A0
A0
40
ENDCHAR

STARTCHAR plusminus
ENCODING 177
SWIDTH 606 0
DWIDTH 6 0
BBX 5 7 1 0
BITMAP
20
20
F8
20
20
00
F8
ENDCHAR

STARTCHAR twosuperior
ENCODING 178
SWIDTH 344 0
DWIDTH 3 0
BBX 3 4 -3 4
BITMAP
E0
20
40
E0
ENDCHAR

STARTCHAR threesuperior
ENCODING 179
SWIDTH 344 0
DWIDTH 3 0
BBX 3 4 -3 4
BITMAP
E0
60
20
E0
ENDCHAR

STARTCHAR acute
ENCODING 180
SWIDTH 333 0
DWIDTH 3 0
BBX 2 2 1 6
BITMAP
40
80
ENDCHAR

STARTCHAR mu
ENCODING 181
SWIDTH 685 0
DWIDTH 6 0
BBX 6 7 0 -2
BITMAP
D8
D8
D8
D8
FC
80
C0
ENDCHAR

STARTCHAR paragraph
ENCODING 182
SWIDTH 747 0
DWIDTH 7 0
BBX 6 10 1 -2
BITMAP
7C
E8
E8
68
28
28
28
28
28
7C
ENDCHAR

STARTCHAR periodcentered
ENCODING 183
SWIDTH 278 0
DWIDTH 5 0
BBX 2 2 2 3
BITMAP
C0
C0
ENDCHAR

STARTCHAR cedilla
ENCODING 184
SWIDTH 333 0
DWIDTH 3 0
BBX 3 3 0 -2
BITMAP
40
60
E0
ENDCHAR

STARTCHAR onesuperior
ENCODING 185
SWIDTH 344 0
DWIDTH 3 0
BBX 3 4 -3 4
BITMAP
C0
40
40
E0
ENDCHAR

STARTCHAR ordmasculine
ENCODING 186
SWIDTH 367 0
DWIDTH 4 0
BBX 3 5 0 3
BITMAP
E0
A0
E0
00
E0
ENDCHAR

STARTCHAR guillemotright
ENCODING 187
SWIDTH 500 0
DWIDTH 5 0
BBX 4 3 1 1
BITMAP
A0
50
A0
ENDCHAR

STARTCHAR onequarter
ENCODING 188
SWIDTH 861 0
DWIDTH 8 0
BBX 8 8 0 0
BITMAP
C4
4C
48
F0
12
26
6F
42
ENDCHAR

STARTCHAR onehalf
ENCODING 189
SWIDTH 861 0
DWIDTH 8 0
BBX 7 8 0 0
BITMAP
C4
4C
48
F0
1E
22
64
4E
ENDCHAR

STARTCHAR threequarters
ENCODING 190
SWIDTH 861 0
DWIDTH 9 0
BBX 8 8 0 0
BITMAP
E4
6C
28
F0
12
26
6F
42
ENDCHAR

STARTCHAR questiondown
ENCODING 191
SWIDTH 500 0
DWIDTH 5 0
BBX 5 8 0 -2
BITMAP
30
30
00
30
60
D8
C8
70
ENDCHAR

STARTCHAR Agrave
ENCODING 192
SWIDTH 759 0
DWIDTH 8 0
BBX 8 10 0 0
BITMAP
10
08
18
18
38
2C
2C
7E
46
EF
ENDCHAR

STARTCHAR Aacute
ENCODING 193
SWIDTH 759 0
DWIDTH 8 0
BBX 8 10 0 0
BITMAP
08
10
18
18
38
2C
2C
7E
46
EF
ENDCHAR

STARTCHAR Acircumflex
ENCODING 194
SWIDTH 759 0
DWIDTH 8 0
BBX 8 10 0 0
BITMAP
18
24
18
18
38
2C
2C
7E
46
EF
ENDCHAR

STARTCHAR Atilde
ENCODING 195
SWIDTH 759 0
DWIDTH 8 0
BBX 8 10 0 0
BITMAP
14
28
18
18
38
2C
2C
7E
46
EF
ENDCHAR

STARTCHAR Adieresis
ENCODING 196
SWIDTH 759 0
DWIDTH 8 0
BBX 8 10 0 0
BITMAP
24
00
18
18
38
2C
2C
7E
46
EF
ENDCHAR

STARTCHAR Aring
ENCODING 197
SWIDTH 759 0
DWIDTH 8 0
BBX 8 11 0 0
BITMAP
38
28
38
18
18
38
2C
2C
7E
46
EF
ENDCHAR

STARTCHAR AE
ENCODING 198
SWIDTH 981 0
DWIDTH 10 0
BBX 11 8 0 0
BITMAP
1FE0
0E20
16A0
1780
3EA0
2620
4620
EFE0
ENDCHAR

STARTCHAR Ccedilla
ENCODING 199
SWIDTH 778 0
DWIDTH 8 0
BBX 7 11 0 -3
BITMAP
3E
62
C2
C0
C0
C2
66
3C
10
18
38
ENDCHAR

STARTCHAR Egrave
ENCODING 200
SWIDTH 759 0
DWIDTH 8 0
BBX 7 10 0 0
BITMAP
20
10
FE
62
6A
78
6A
62
62
FE
ENDCHAR

STARTCHAR Eacute
ENCODING 201
SWIDTH 759 0
DWIDTH 8 0
BBX 7 10 0 0
BITMAP
08
10
FE
62
6A
78
6A
62
62
FE
ENDCHAR

STARTCHAR Ecircumflex
ENCODING 202
SWIDTH 759 0
DWIDTH 8 0
BBX 7 10 0 0
BITMAP
18
24
FE
62
6A
78
6A
62
62
FE
ENDCHAR

STARTCHAR Edieresis
ENCODING 203
SWIDTH 759 0
DWIDTH 8 0
BBX 7 10 0 0
BITMAP
14
28
FE
62
6A
78
6A
62
62
FE
ENDCHAR

STARTCHAR Igrave
ENCODING 204
SWIDTH 444 0
DWIDTH 4 0
BBX 4 10 0 0
BITMAP
40
20
F0
60
60
60
60
60
60
F0
ENDCHAR

STARTCHAR Iacute
ENCODING 205
SWIDTH 444 0
DWIDTH 4 0
BBX 4 10 0 0
BITMAP
20
40
F0
60
60
60
60
60
60
F0
ENDCHAR

STARTCHAR Icircumflex
ENCODING 206
SWIDTH 444 0
DWIDTH 4 0
BBX 4 10 0 0
BITMAP
60
90
F0
60
60
60
60
60
60
F0
ENDCHAR

STARTCHAR Idieresis
ENCODING 207
SWIDTH 444 0
DWIDTH 4 0
BBX 4 10 0 0
BITMAP
90
00
F0
60
60
60
60
60
60
F0
ENDCHAR

STARTCHAR Eth
ENCODING 208
SWIDTH 833 0
DWIDTH 8 0
BBX 8 8 0 0
BITMAP
FC
66
63
F3
63
63
66
FC
ENDCHAR

STARTCHAR Ntilde
ENCODING 209
SWIDTH 833 0
DWIDTH 8 0
BBX 8 10 0 0
BITMAP
14
28
E7
62
72
7A
5E
4E
46
E2
ENDCHAR

STARTCHAR Ograve
ENCODING 210
SWIDTH 833 0
DWIDTH 8 0
BBX 8 10 0 0
BITMAP
10
08
3C
66
C3
C3
C3
C3
66
3C
ENDCHAR

STARTCHAR Oacute
ENCODING 211
SWIDTH 833 0
DWIDTH 8 0
BBX 8 10 0 0
BITMAP
08
10
3C
66
C3
C3
C3
C3
66
3C
ENDCHAR

STARTCHAR Ocircumflex
ENCODING 212
SWIDTH 833 0
DWIDTH 8 0
BBX 8 10 0 0
BITMAP
18
24
3C
66
C3
C3
C3
C3
66
3C
ENDCHAR

STARTCHAR Otilde
ENCODING 213
SWIDTH 833 0
DWIDTH 8 0
BBX 8 10 0 0
BITMAP
14
28
3C
66
C3
C3
C3
C3
66
3C
ENDCHAR

STARTCHAR Odieresis
ENCODING 214
SWIDTH 833 0
DWIDTH 8 0
BBX 8 10 0 0
BITMAP
24
00
3C
66
C3
C3
C3
C3
66
3C
ENDCHAR

STARTCHAR multiply
ENCODING 215
SWIDTH 606 0
DWIDTH 6 0
BBX 4 4 1 1
BITMAP
90
60
60
90
ENDCHAR

STARTCHAR Oslash
ENCODING 216
SWIDTH 833 0
DWIDTH 8 0
BBX 8 8 0 0
BITMAP
3D
66
C7
CB
D3
E3
66
BC
ENDCHAR

STARTCHAR Ugrave
ENCODING 217
SWIDTH 833 0
DWIDTH 8 0
BBX 8 10 0 0
BITMAP
10
08
F7
62
62
62
62
62
62
3C
ENDCHAR

STARTCHAR Uacute
ENCODING 218
SWIDTH 833 0
DWIDTH 8 0
BBX 8 10 0 0
BITMAP
08
10
F7
62
62
62
62
62
62
3C
ENDCHAR

STARTCHAR Ucircumflex
ENCODING 219
SWIDTH 833 0
DWIDTH 8 0
BBX 8 10 0 0
BITMAP
18
24
F7
62
62
62
62
62
62
3C
ENDCHAR

STARTCHAR Udieresis
ENCODING 220
SWIDTH 833 0
DWIDTH 8 0
BBX 8 10 0 0
BITMAP
24
00
F7
62
62
62
62
62
62
3C
ENDCHAR

STARTCHAR Yacute
ENCODING 221
SWIDTH 722 0
DWIDTH 8 0
BBX 8 10 0 0
BITMAP
08
10
F7
62
34
18
18
18
18
3C
ENDCHAR

STARTCHAR Thorn
ENCODING 222
SWIDTH 759 0
DWIDTH 8 0
BBX 7 8 0 0
BITMAP
F0
60
7C
66
66
7C
60
F0
ENDCHAR

STARTCHAR germandbls
ENCODING 223
SWIDTH 611 0
DWIDTH 6 0
BBX 6 8 0 0
BITMAP
38
6C
6C
78
6C
6C
6C
F8
ENDCHAR

STARTCHAR agrave
ENCODING 224
SWIDTH 611 0
DWIDTH 6 0
BBX 6 7 0 0
BITMAP
40
20
F8
D8
78
D8
EC
ENDCHAR

STARTCHAR aacute
ENCODING 225
SWIDTH 611 0
DWIDTH 6 0
BBX 6 7 0 0
BITMAP
10
20
F8
D8
78
D8
EC
ENDCHAR

STARTCHAR acircumflex
ENCODING 226
SWIDTH 611 0
DWIDTH 6 0
BBX 6 7 0 0
BITMAP
30
48
F8
D8
78
D8
EC
ENDCHAR

STARTCHAR atilde
ENCODING 227
SWIDTH 611 0
DWIDTH 6 0
BBX 6 7 0 0
BITMAP
28
50
F8
D8
78
D8
EC
ENDCHAR

STARTCHAR adieresis
ENCODING 228
SWIDTH 611 0
DWIDTH 6 0
BBX 6 7 0 0
BITMAP
48
00
F8
D8
78
D8
EC
ENDCHAR

STARTCHAR aring
ENCODING 229
SWIDTH 611 0
DWIDTH 6 0
BBX 6 8 0 0
BITMAP
70
50
70
F8
D8
78
D8
EC
ENDCHAR

STARTCHAR ae
ENCODING 230
SWIDTH 870 0
DWIDTH 9 0
BBX 8 5 0 0
BITMAP
FE
DB
7F
D8
EF
ENDCHAR

STARTCHAR ccedilla
ENCODING 231
SWIDTH 556 0
DWIDTH 6 0
BBX 5 8 0 -3
BITMAP
78
D8
C0
C8
70
20
30
70
ENDCHAR

STARTCHAR egrave
ENCODING 232
SWIDTH 574 0
DWIDTH 6 0
BBX 5 7 0 0
BITMAP
40
20
70
D8
F8
C0
78
ENDCHAR

STARTCHAR eacute
ENCODING 233
SWIDTH 574 0
DWIDTH 6 0
BBX 5 7 0 0
BITMAP
10
20
70
D8
F8
C0
78
ENDCHAR

STARTCHAR ecircumflex
ENCODING 234
SWIDTH 574 0
DWIDTH 6 0
BBX 5 7 0 0
BITMAP
30
48
70
D8
F8
C0
78
ENDCHAR

STARTCHAR edieresis
ENCODING 235
SWIDTH 574 0
DWIDTH 6 0
BBX 5 7 0 0
BITMAP
48
00
70
D8
F8
C0
78
ENDCHAR

STARTCHAR igrave
ENCODING 236
SWIDTH 370 0
DWIDTH 4 0
BBX 4 7 0 0
BITMAP
40
20
E0
60
60
60
F0
ENDCHAR

STARTCHAR iacute
ENCODING 237
SWIDTH 370 0
DWIDTH 4 0
BBX 4 7 0 0
BITMAP
20
40
E0
60
60
60
F0
ENDCHAR

STARTCHAR icircumflex
ENCODING 238
SWIDTH 370 0
DWIDTH 4 0
BBX 4 7 0 0
BITMAP
60
90
E0
60
60
60
F0
ENDCHAR

STARTCHAR idieresis
ENCODING 239
SWIDTH 370 0
DWIDTH 4 0
BBX 4 7 0 0
BITMAP
90
00
E0
60
60
60
F0
ENDCHAR

STARTCHAR eth
ENCODING 240
SWIDTH 611 0
DWIDTH 6 0
BBX 6 9 0 0
BITMAP
90
60
70
98
7C
CC
CC
CC
78
ENDCHAR

STARTCHAR ntilde
ENCODING 241
SWIDTH 685 0
DWIDTH 7 0
BBX 7 7 0 0
BITMAP
28
50
FC
6C
6C
6C
EE
ENDCHAR

STARTCHAR ograve
ENCODING 242
SWIDTH 611 0
DWIDTH 6 0
BBX 6 7 0 0
BITMAP
20
10
78
CC
CC
CC
78
ENDCHAR

STARTCHAR oacute
ENCODING 243
SWIDTH 611 0
DWIDTH 6 0
BBX 6 7 0 0
BITMAP
10
20
78
CC
CC
CC
78
ENDCHAR

STARTCHAR ocircumflex
ENCODING 244
SWIDTH 611 0
DWIDTH 6 0
BBX 6 7 0 0
BITMAP
30
48
78
CC
CC
CC
78
ENDCHAR

STARTCHAR otilde
ENCODING 245
SWIDTH 611 0
DWIDTH 6 0
BBX 6 7 0 0
BITMAP
28
50
78
CC
CC
CC
78
ENDCHAR

STARTCHAR odieresis
ENCODING 246
SWIDTH 611 0
DWIDTH 6 0
BBX 6 7 0 0
BITMAP
48
00
78
CC
CC
CC
78
ENDCHAR

STARTCHAR divide
ENCODING 247
SWIDTH 606 0
DWIDTH 6 0
BBX 6 5 0 0
BITMAP
30
00
FC
00
30
ENDCHAR

STARTCHAR oslash
ENCODING 248
SWIDTH 611 0
DWIDTH 6 0
BBX 6 7 0 -1
BITMAP
0C
78
DC
DC
EC
78
40
ENDCHAR

STARTCHAR ugrave
ENCODING 249
SWIDTH 685 0
DWIDTH 7 0
BBX 7 7 0 0
BITMAP
20
10
EC
6C
6C
7C
76
ENDCHAR

STARTCHAR uacute
ENCODING 250
SWIDTH 685 0
DWIDTH 7 0
BBX 7 7 0 0
BITMAP
08
10
EC
6C
6C
7C
76
ENDCHAR

STARTCHAR ucircumflex
ENCODING 251
SWIDTH 685 0
DWIDTH 7 0
BBX 7 7 0 0
BITMAP
18
24
EC
6C
6C
7C
76
ENDCHAR

STARTCHAR udieresis
ENCODING 252
SWIDTH 685 0
DWIDTH 7 0
BBX 7 7 0 0
BITMAP
48
00
EC
6C
6C
7C
76
ENDCHAR

STARTCHAR yacute
ENCODING 253
SWIDTH 611 0
DWIDTH 6 0
BBX 6 9 0 -2
BITMAP
10
20
EC
68
68
30
30
20
E0
ENDCHAR

STARTCHAR thorn
ENCODING 254
SWIDTH 667 0
DWIDTH 7 0
BBX 7 10 0 -2
BITMAP
E0
60
60
7C
66
66
66
7C
60
F0
ENDCHAR

STARTCHAR ydieresis
ENCODING 255
SWIDTH 611 0
DWIDTH 6 0
BBX 6 9 0 -2
BITMAP
48
00
EC
68
68
30
30
20
E0
ENDCHAR
ENDFONT
